{
    "asset": {
        "version": "2.0",
        "generator": "Open Asset Import Library (assimp v5.2.cf7d3637)"
    },
    "extensionsUsed": [
        "KHR_materials_specular",
        "KHR_materials_volume",
        "KHR_materials_ior",
        "FB_ngon_encoding"
    ],
    "accessors": [
        {
            "bufferView": 0,
            "byteOffset": 0,
            "componentType": 5126,
            "count": 834,
            "type": "VEC3",
            "max": [
                2.0,
                2.0,
                0.7500050067901611
            ],
            "min": [
                -2.0,
                -2.0,
                -0.7500050067901611
            ]
        },
        {
            "bufferView": 1,
            "byteOffset": 0,
            "componentType": 5126,
            "count": 834,
            "type": "VEC3",
            "max": [
                1.0,
                1.0,
                1.0
            ],
            "min": [
                -1.0,
                -1.0,
                -1.0
            ]
        },
        {
            "bufferView": 2,
            "byteOffset": 0,
            "componentType": 5126,
            "count": 834,
            "type": "VEC2",
            "max": [
                36.25,
                0.25
            ],
            "min": [
                35.75,
                -0.25
            ]
        },
        {
            "bufferView": 3,
            "byteOffset": 0,
            "componentType": 5125,
            "count": 834,
            "type": "SCALAR",
            "max": [
                833
            ],
            "min": [
                0
            ]
        }
    ],
    "buffers": [
        {
            "byteLength": 30024,
            "uri": "result.bin"
        }
    ],
    "bufferViews": [
        {
            "buffer": 0,
            "byteOffset": 0,
            "byteLength": 10008,
            "target": 34962
        },
        {
            "buffer": 0,
            "byteOffset": 10008,
            "byteLength": 10008,
            "target": 34962
        },
        {
            "buffer": 0,
            "byteOffset": 20016,
            "byteLength": 6672,
            "target": 34962
        },
        {
            "buffer": 0,
            "byteOffset": 26688,
            "byteLength": 3336,
            "target": 34963
        }
    ],
    "materials": [
        {
            "name": "Union1Mtl.001",
            "pbrMetallicRoughness": {
                "baseColorFactor": [
                    0.2047100067138672,
                    0.10615599900484085,
                    0.058187201619148257,
                    1.0
                ],
                "metallicFactor": 0.0
            },
            "doubleSided": true,
            "extensions": {
                "KHR_materials_specular": {
                    "specularFactor": 1.0,
                    "specularColorFactor": [
                        0.11554368585348129,
                        0.11554368585348129,
                        0.11554368585348129
                    ]
                },
                "KHR_materials_ior": {
                    "ior": 1.4500000476837159
                }
            }
        },
        {
            "name": "material"
        }
    ],
    "meshes": [
        {
            "name": "milkCh",
            "primitives": [
                {
                    "mode": 4,
                    "material": 0,
                    "indices": 3,
                    "attributes": {
                        "POSITION": 0,
                        "NORMAL": 1,
                        "TEXCOORD_0": 2
                    }
                }
            ]
        }
    ],
    "nodes": [
        {
            "name": "milkCh",
            "matrix": [
                1.0,
                0.0,
                0.0,
                0.0,
                0.0,
                -1.1920928955078126e-7,
                0.9999999403953552,
                0.0,
                0.0,
                -0.9999999403953552,
                -1.1920928955078126e-7,
                0.0,
                0.0,
                0.0,
                0.0,
                1.0
            ],
            "mesh": 0
        }
    ],
    "scenes": [
        {
            "nodes": [
                0
            ]
        }
    ],
    "scene": 0
}