{
    "asset": {
        "version": "2.0",
        "generator": "Open Asset Import Library (assimp v5.2.cf7d3637)"
    },
    "extensionsUsed": [
        "KHR_materials_specular",
        "KHR_materials_volume",
        "KHR_materials_ior",
        "FB_ngon_encoding"
    ],
    "accessors": [
        {
            "bufferView": 0,
            "byteOffset": 0,
            "componentType": 5126,
            "count": 690,
            "type": "VEC3",
            "max": [
                2.0,
                2.0,
                0.7500050067901611
            ],
            "min": [
                -2.0,
                -2.0,
                -0.7500039935112
            ]
        },
        {
            "bufferView": 1,
            "byteOffset": 0,
            "componentType": 5126,
            "count": 690,
            "type": "VEC3",
            "max": [
                1.0,
                1.0,
                1.0
            ],
            "min": [
                -1.0,
                -1.0,
                -1.0
            ]
        },
        {
            "bufferView": 2,
            "byteOffset": 0,
            "componentType": 5126,
            "count": 690,
            "type": "VEC2",
            "max": [
                30.25,
                26.25
            ],
            "min": [
                29.75,
                25.75
            ]
        },
        {
            "bufferView": 3,
            "byteOffset": 0,
            "componentType": 5125,
            "count": 690,
            "type": "SCALAR",
            "max": [
                689
            ],
            "min": [
                0
            ]
        }
    ],
    "buffers": [
        {
            "byteLength": 24840,
            "uri": "result.bin"
        }
    ],
    "bufferViews": [
        {
            "buffer": 0,
            "byteOffset": 0,
            "byteLength": 8280,
            "target": 34962
        },
        {
            "buffer": 0,
            "byteOffset": 8280,
            "byteLength": 8280,
            "target": 34962
        },
        {
            "buffer": 0,
            "byteOffset": 16560,
            "byteLength": 5520,
            "target": 34962
        },
        {
            "buffer": 0,
            "byteOffset": 22080,
            "byteLength": 2760,
            "target": 34963
        }
    ],
    "materials": [
        {
            "name": "Union1Mtl.004",
            "pbrMetallicRoughness": {
                "baseColorFactor": [
                    0.9913930296897888,
                    0.8993840217590332,
                    0.5054320096969605,
                    1.0
                ],
                "metallicFactor": 0.0
            },
            "doubleSided": true,
            "extensions": {
                "KHR_materials_specular": {
                    "specularFactor": 1.0,
                    "specularColorFactor": [
                        0.7502081990242004,
                        0.7502081990242004,
                        0.7502081990242004
                    ]
                },
                "KHR_materials_ior": {
                    "ior": 1.4500000476837159
                }
            }
        },
        {
            "name": "material"
        }
    ],
    "meshes": [
        {
            "name": "hir",
            "primitives": [
                {
                    "mode": 4,
                    "material": 0,
                    "indices": 3,
                    "attributes": {
                        "POSITION": 0,
                        "NORMAL": 1,
                        "TEXCOORD_0": 2
                    }
                }
            ]
        }
    ],
    "nodes": [
        {
            "name": "hir",
            "matrix": [
                1.0,
                0.0,
                0.0,
                0.0,
                0.0,
                -1.1920928955078126e-7,
                0.9999999403953552,
                0.0,
                0.0,
                -0.9999999403953552,
                -1.1920928955078126e-7,
                0.0,
                0.0,
                0.0,
                0.0,
                1.0
            ],
            "mesh": 0
        }
    ],
    "scenes": [
        {
            "nodes": [
                0
            ]
        }
    ],
    "scene": 0
}